<?xml version="1.0" encoding="UTF-8" standalone="no"?>
<!DOCTYPE svg PUBLIC "-//W3C//DTD SVG 1.1//EN"
 "http://www.w3.org/Graphics/SVG/1.1/DTD/svg11.dtd">
<!-- Generated by graphviz version 2.44.0 ()
 -->
<!-- Title: Graphical Class Hierarchy Pages: 1 -->
<svg width="180pt" height="28pt"
 viewBox="0.00 0.00 180.00 28.00" xmlns="http://www.w3.org/2000/svg" xmlns:xlink="http://www.w3.org/1999/xlink">
<g id="graph0" class="graph" transform="scale(1 1) rotate(0) translate(4 24)">
<title>Graphical Class Hierarchy</title>
<!-- Node1 -->
<g id="node1" class="node">
<title>Node1</title>
<g id="a_node1"><a xlink:href="classWatchyBell.html" target="_top" xlink:title="Watch face rendering.">
<polygon fill="none" stroke="black" points="0,-0.5 0,-19.5 65,-19.5 65,-0.5 0,-0.5"/>
<text text-anchor="middle" x="32.5" y="-7.5" font-family="Helvetica,sans-Serif" font-size="10.00">WatchyBell</text>
</a>
</g>
</g>
<!-- Node0 -->
<g id="node2" class="node">
<title>Node0</title>
<g id="a_node2"><a xlink:href="classWatchyBase.html" target="_top" xlink:title="Base class for Watchy.">
<polygon fill="none" stroke="black" points="101,-0.5 101,-19.5 172,-19.5 172,-0.5 101,-0.5"/>
<text text-anchor="middle" x="136.5" y="-7.5" font-family="Helvetica,sans-Serif" font-size="10.00">WatchyBase</text>
</a>
</g>
</g>
<!-- Node1&#45;&gt;Node0 -->
<g id="edge1" class="edge">
<title>Node1&#45;&gt;Node0</title>
<path fill="none" stroke="midnightblue" d="M75.36,-3.35C83.88,-3.16 92.74,-3.24 100.97,-3.57"/>
<polygon fill="midnightblue" stroke="midnightblue" points="75.09,0.15 65.21,-3.7 75.33,-6.85 75.09,0.15"/>
</g>
<!-- Node0&#45;&gt;Node1 -->
<g id="edge2" class="edge">
<title>Node0&#45;&gt;Node1</title>
<path fill="none" stroke="midnightblue" d="M90.97,-16.7C82.29,-16.83 73.37,-16.7 65.21,-16.3"/>
<polygon fill="midnightblue" stroke="midnightblue" points="91.07,-20.2 100.97,-16.43 90.88,-13.2 91.07,-20.2"/>
</g>
</g>
</svg>
