<?xml version="1.0" encoding="UTF-8" standalone="no"?>
<!DOCTYPE svg PUBLIC "-//W3C//DTD SVG 1.1//EN"
 "http://www.w3.org/Graphics/SVG/1.1/DTD/svg11.dtd">
<!-- Generated by graphviz version 2.44.0 ()
 -->
<!-- Title: /github/workspace/Platformio/src/WatchyBase.hpp Pages: 1 -->
<svg width="455pt" height="95pt"
 viewBox="0.00 0.00 455.00 95.00" xmlns="http://www.w3.org/2000/svg" xmlns:xlink="http://www.w3.org/1999/xlink">
<g id="graph0" class="graph" transform="scale(1 1) rotate(0) translate(4 91)">
<title>/github/workspace/Platformio/src/WatchyBase.hpp</title>
<!-- Node1 -->
<g id="node1" class="node">
<title>Node1</title>
<g id="a_node1"><a xlink:title=" ">
<polygon fill="#bfbfbf" stroke="black" points="81.5,-56.5 81.5,-86.5 224.5,-86.5 224.5,-56.5 81.5,-56.5"/>
<text text-anchor="start" x="89.5" y="-74.5" font-family="Helvetica,sans-Serif" font-size="10.00">/github/workspace/Platformio</text>
<text text-anchor="middle" x="153" y="-63.5" font-family="Helvetica,sans-Serif" font-size="10.00">/src/WatchyBase.hpp</text>
</a>
</g>
</g>
<!-- Node2 -->
<g id="node2" class="node">
<title>Node2</title>
<g id="a_node2"><a xlink:title=" ">
<polygon fill="none" stroke="#bfbfbf" points="0,-0.5 0,-19.5 56,-19.5 56,-0.5 0,-0.5"/>
<text text-anchor="middle" x="28" y="-7.5" font-family="Helvetica,sans-Serif" font-size="10.00">Watchy.h</text>
</a>
</g>
</g>
<!-- Node1&#45;&gt;Node2 -->
<g id="edge1" class="edge">
<title>Node1&#45;&gt;Node2</title>
<path fill="none" stroke="midnightblue" d="M123.38,-56.4C102.78,-46.59 75.52,-33.62 55.42,-24.05"/>
<polygon fill="midnightblue" stroke="midnightblue" points="56.72,-20.8 46.19,-19.66 53.71,-27.12 56.72,-20.8"/>
</g>
<!-- Node3 -->
<g id="node3" class="node">
<title>Node3</title>
<g id="a_node3"><a xlink:title=" ">
<polygon fill="none" stroke="#bfbfbf" points="74.5,-0.5 74.5,-19.5 117.5,-19.5 117.5,-0.5 74.5,-0.5"/>
<text text-anchor="middle" x="96" y="-7.5" font-family="Helvetica,sans-Serif" font-size="10.00">time.h</text>
</a>
</g>
</g>
<!-- Node1&#45;&gt;Node3 -->
<g id="edge2" class="edge">
<title>Node1&#45;&gt;Node3</title>
<path fill="none" stroke="midnightblue" d="M139.49,-56.4C131.04,-47.58 120.12,-36.18 111.34,-27.02"/>
<polygon fill="midnightblue" stroke="midnightblue" points="113.74,-24.46 104.29,-19.66 108.68,-29.3 113.74,-24.46"/>
</g>
<!-- Node4 -->
<g id="node4" class="node">
<title>Node4</title>
<g id="a_node4"><a xlink:href="Oswald__Regular46pt7b_8h.html" target="_top" xlink:title=" ">
<polygon fill="none" stroke="black" points="135.5,-0.5 135.5,-19.5 284.5,-19.5 284.5,-0.5 135.5,-0.5"/>
<text text-anchor="middle" x="210" y="-7.5" font-family="Helvetica,sans-Serif" font-size="10.00">fonts/Oswald_Regular46pt7b.h</text>
</a>
</g>
</g>
<!-- Node1&#45;&gt;Node4 -->
<g id="edge3" class="edge">
<title>Node1&#45;&gt;Node4</title>
<path fill="none" stroke="midnightblue" d="M166.51,-56.4C174.96,-47.58 185.88,-36.18 194.66,-27.02"/>
<polygon fill="midnightblue" stroke="midnightblue" points="197.32,-29.3 201.71,-19.66 192.26,-24.46 197.32,-29.3"/>
</g>
<!-- Node5 -->
<g id="node5" class="node">
<title>Node5</title>
<g id="a_node5"><a xlink:href="Oswald__Regular9pt7b_8h.html" target="_top" xlink:title=" ">
<polygon fill="none" stroke="black" points="303,-0.5 303,-19.5 447,-19.5 447,-0.5 303,-0.5"/>
<text text-anchor="middle" x="375" y="-7.5" font-family="Helvetica,sans-Serif" font-size="10.00">fonts/Oswald_Regular9pt7b.h</text>
</a>
</g>
</g>
<!-- Node1&#45;&gt;Node5 -->
<g id="edge4" class="edge">
<title>Node1&#45;&gt;Node5</title>
<path fill="none" stroke="midnightblue" d="M205.33,-56.47C244.47,-45.99 297.26,-31.84 333.5,-22.12"/>
<polygon fill="midnightblue" stroke="midnightblue" points="334.51,-25.48 343.26,-19.51 332.7,-18.71 334.51,-25.48"/>
</g>
</g>
</svg>
