<?xml version="1.0" encoding="UTF-8" standalone="no"?>
<!DOCTYPE svg PUBLIC "-//W3C//DTD SVG 1.1//EN"
 "http://www.w3.org/Graphics/SVG/1.1/DTD/svg11.dtd">
<!-- Generated by graphviz version 2.44.0 ()
 -->
<!-- Title: /github/workspace/Platformio/src/WatchyBase.hpp Pages: 1 -->
<svg width="312pt" height="173pt"
 viewBox="0.00 0.00 312.00 173.00" xmlns="http://www.w3.org/2000/svg" xmlns:xlink="http://www.w3.org/1999/xlink">
<g id="graph0" class="graph" transform="scale(1 1) rotate(0) translate(4 169)">
<title>/github/workspace/Platformio/src/WatchyBase.hpp</title>
<!-- Node1 -->
<g id="node1" class="node">
<title>Node1</title>
<g id="a_node1"><a xlink:title=" ">
<polygon fill="#bfbfbf" stroke="black" points="80,-134.5 80,-164.5 223,-164.5 223,-134.5 80,-134.5"/>
<text text-anchor="start" x="88" y="-152.5" font-family="Helvetica,sans-Serif" font-size="10.00">/github/workspace/Platformio</text>
<text text-anchor="middle" x="151.5" y="-141.5" font-family="Helvetica,sans-Serif" font-size="10.00">/src/WatchyBase.hpp</text>
</a>
</g>
</g>
<!-- Node2 -->
<g id="node2" class="node">
<title>Node2</title>
<g id="a_node2"><a xlink:href="WatchyBase_8cpp.html" target="_top" xlink:title=" ">
<polygon fill="none" stroke="black" points="0,-67.5 0,-97.5 143,-97.5 143,-67.5 0,-67.5"/>
<text text-anchor="start" x="8" y="-85.5" font-family="Helvetica,sans-Serif" font-size="10.00">/github/workspace/Platformio</text>
<text text-anchor="middle" x="71.5" y="-74.5" font-family="Helvetica,sans-Serif" font-size="10.00">/src/WatchyBase.cpp</text>
</a>
</g>
</g>
<!-- Node1&#45;&gt;Node2 -->
<g id="edge1" class="edge">
<title>Node1&#45;&gt;Node2</title>
<path fill="none" stroke="midnightblue" d="M126.13,-127.88C113.97,-118.01 99.72,-106.43 88.82,-97.58"/>
<polygon fill="midnightblue" stroke="midnightblue" points="124.17,-130.81 134.14,-134.4 128.59,-125.37 124.17,-130.81"/>
</g>
<!-- Node3 -->
<g id="node3" class="node">
<title>Node3</title>
<g id="a_node3"><a xlink:href="WatchyBell_8hpp.html" target="_top" xlink:title=" ">
<polygon fill="none" stroke="black" points="161,-67.5 161,-97.5 304,-97.5 304,-67.5 161,-67.5"/>
<text text-anchor="start" x="169" y="-85.5" font-family="Helvetica,sans-Serif" font-size="10.00">/github/workspace/Platformio</text>
<text text-anchor="middle" x="232.5" y="-74.5" font-family="Helvetica,sans-Serif" font-size="10.00">/src/WatchyBell.hpp</text>
</a>
</g>
</g>
<!-- Node1&#45;&gt;Node3 -->
<g id="edge2" class="edge">
<title>Node1&#45;&gt;Node3</title>
<path fill="none" stroke="midnightblue" d="M177.19,-127.88C189.5,-118.01 203.93,-106.43 214.96,-97.58"/>
<polygon fill="midnightblue" stroke="midnightblue" points="174.68,-125.41 169.08,-134.4 179.07,-130.87 174.68,-125.41"/>
</g>
<!-- Node4 -->
<g id="node4" class="node">
<title>Node4</title>
<g id="a_node4"><a xlink:href="WatchyBell_8cpp.html" target="_top" xlink:title=" ">
<polygon fill="none" stroke="black" points="161,-0.5 161,-30.5 304,-30.5 304,-0.5 161,-0.5"/>
<text text-anchor="start" x="169" y="-18.5" font-family="Helvetica,sans-Serif" font-size="10.00">/github/workspace/Platformio</text>
<text text-anchor="middle" x="232.5" y="-7.5" font-family="Helvetica,sans-Serif" font-size="10.00">/src/WatchyBell.cpp</text>
</a>
</g>
</g>
<!-- Node3&#45;&gt;Node4 -->
<g id="edge3" class="edge">
<title>Node3&#45;&gt;Node4</title>
<path fill="none" stroke="midnightblue" d="M232.5,-57.11C232.5,-48.15 232.5,-38.32 232.5,-30.58"/>
<polygon fill="midnightblue" stroke="midnightblue" points="229,-57.4 232.5,-67.4 236,-57.4 229,-57.4"/>
</g>
</g>
</svg>
