<?xml version="1.0" encoding="UTF-8" standalone="no"?>
<!DOCTYPE svg PUBLIC "-//W3C//DTD SVG 1.1//EN"
 "http://www.w3.org/Graphics/SVG/1.1/DTD/svg11.dtd">
<!-- Generated by graphviz version 2.44.0 ()
 -->
<!-- Title: /github/workspace/Platformio/src/WatchyBase.cpp Pages: 1 -->
<svg width="455pt" height="151pt"
 viewBox="0.00 0.00 455.00 151.00" xmlns="http://www.w3.org/2000/svg" xmlns:xlink="http://www.w3.org/1999/xlink">
<g id="graph0" class="graph" transform="scale(1 1) rotate(0) translate(4 147)">
<title>/github/workspace/Platformio/src/WatchyBase.cpp</title>
<!-- Node1 -->
<g id="node1" class="node">
<title>Node1</title>
<g id="a_node1"><a xlink:title=" ">
<polygon fill="#bfbfbf" stroke="black" points="81.5,-112.5 81.5,-142.5 224.5,-142.5 224.5,-112.5 81.5,-112.5"/>
<text text-anchor="start" x="89.5" y="-130.5" font-family="Helvetica,sans-Serif" font-size="10.00">/github/workspace/Platformio</text>
<text text-anchor="middle" x="153" y="-119.5" font-family="Helvetica,sans-Serif" font-size="10.00">/src/WatchyBase.cpp</text>
</a>
</g>
</g>
<!-- Node2 -->
<g id="node2" class="node">
<title>Node2</title>
<g id="a_node2"><a xlink:href="WatchyBase_8hpp.html" target="_top" xlink:title=" ">
<polygon fill="none" stroke="black" points="108.5,-56.5 108.5,-75.5 197.5,-75.5 197.5,-56.5 108.5,-56.5"/>
<text text-anchor="middle" x="153" y="-63.5" font-family="Helvetica,sans-Serif" font-size="10.00">WatchyBase.hpp</text>
</a>
</g>
</g>
<!-- Node1&#45;&gt;Node2 -->
<g id="edge1" class="edge">
<title>Node1&#45;&gt;Node2</title>
<path fill="none" stroke="midnightblue" d="M153,-112.4C153,-104.47 153,-94.46 153,-85.86"/>
<polygon fill="midnightblue" stroke="midnightblue" points="156.5,-85.66 153,-75.66 149.5,-85.66 156.5,-85.66"/>
</g>
<!-- Node3 -->
<g id="node3" class="node">
<title>Node3</title>
<g id="a_node3"><a xlink:title=" ">
<polygon fill="none" stroke="#bfbfbf" points="0,-0.5 0,-19.5 56,-19.5 56,-0.5 0,-0.5"/>
<text text-anchor="middle" x="28" y="-7.5" font-family="Helvetica,sans-Serif" font-size="10.00">Watchy.h</text>
</a>
</g>
</g>
<!-- Node2&#45;&gt;Node3 -->
<g id="edge2" class="edge">
<title>Node2&#45;&gt;Node3</title>
<path fill="none" stroke="midnightblue" d="M133.19,-56.44C112.71,-47.6 80.52,-33.69 57.14,-23.59"/>
<polygon fill="midnightblue" stroke="midnightblue" points="58.28,-20.27 47.71,-19.52 55.51,-26.7 58.28,-20.27"/>
</g>
<!-- Node4 -->
<g id="node4" class="node">
<title>Node4</title>
<g id="a_node4"><a xlink:title=" ">
<polygon fill="none" stroke="#bfbfbf" points="74.5,-0.5 74.5,-19.5 117.5,-19.5 117.5,-0.5 74.5,-0.5"/>
<text text-anchor="middle" x="96" y="-7.5" font-family="Helvetica,sans-Serif" font-size="10.00">time.h</text>
</a>
</g>
</g>
<!-- Node2&#45;&gt;Node4 -->
<g id="edge3" class="edge">
<title>Node2&#45;&gt;Node4</title>
<path fill="none" stroke="midnightblue" d="M143.84,-56.32C135.5,-48.42 122.97,-36.55 112.82,-26.94"/>
<polygon fill="midnightblue" stroke="midnightblue" points="114.99,-24.17 105.32,-19.83 110.18,-29.25 114.99,-24.17"/>
</g>
<!-- Node5 -->
<g id="node5" class="node">
<title>Node5</title>
<g id="a_node5"><a xlink:href="Oswald__Regular46pt7b_8h.html" target="_top" xlink:title=" ">
<polygon fill="none" stroke="black" points="135.5,-0.5 135.5,-19.5 284.5,-19.5 284.5,-0.5 135.5,-0.5"/>
<text text-anchor="middle" x="210" y="-7.5" font-family="Helvetica,sans-Serif" font-size="10.00">fonts/Oswald_Regular46pt7b.h</text>
</a>
</g>
</g>
<!-- Node2&#45;&gt;Node5 -->
<g id="edge4" class="edge">
<title>Node2&#45;&gt;Node5</title>
<path fill="none" stroke="midnightblue" d="M162.16,-56.32C170.5,-48.42 183.03,-36.55 193.18,-26.94"/>
<polygon fill="midnightblue" stroke="midnightblue" points="195.82,-29.25 200.68,-19.83 191.01,-24.17 195.82,-29.25"/>
</g>
<!-- Node6 -->
<g id="node6" class="node">
<title>Node6</title>
<g id="a_node6"><a xlink:href="Oswald__Regular9pt7b_8h.html" target="_top" xlink:title=" ">
<polygon fill="none" stroke="black" points="303,-0.5 303,-19.5 447,-19.5 447,-0.5 303,-0.5"/>
<text text-anchor="middle" x="375" y="-7.5" font-family="Helvetica,sans-Serif" font-size="10.00">fonts/Oswald_Regular9pt7b.h</text>
</a>
</g>
</g>
<!-- Node2&#45;&gt;Node6 -->
<g id="edge5" class="edge">
<title>Node2&#45;&gt;Node6</title>
<path fill="none" stroke="midnightblue" d="M188.18,-56.44C226.58,-47.1 288.18,-32.12 330.06,-21.93"/>
<polygon fill="midnightblue" stroke="midnightblue" points="331.1,-25.28 339.99,-19.52 329.44,-18.48 331.1,-25.28"/>
</g>
</g>
</svg>
